<svg width="34" height="33" viewBox="0 0 34 33" fill="none" xmlns="http://www.w3.org/2000/svg">
<path d="M29.8959 0H3.96736C3.02963 0 2.1303 0.372512 1.46723 1.03559C0.804152 1.69866 0.431641 2.59798 0.431641 3.53571L0.431641 29.4643C0.431641 30.402 0.804152 31.3013 1.46723 31.9644C2.1303 32.6275 3.02963 33 3.96736 33H14.0773V21.7807H9.43666V16.5H14.0773V12.4752C14.0773 7.89717 16.8027 5.36839 20.9771 5.36839C22.9762 5.36839 25.0667 5.72491 25.0667 5.72491V10.2182H22.7634C20.4939 10.2182 19.786 11.6266 19.786 13.0711V16.5H24.8524L24.0421 21.7807H19.786V33H29.8959C30.8337 33 31.733 32.6275 32.3961 31.9644C33.0591 31.3013 33.4316 30.402 33.4316 29.4643V3.53571C33.4316 2.59798 33.0591 1.69866 32.3961 1.03559C31.733 0.372512 30.8337 0 29.8959 0Z" fill="#4267B2"/>
</svg>
