<svg width="34" height="33" viewBox="0 0 34 33" fill="none" xmlns="http://www.w3.org/2000/svg">
<path d="M31.0745 0H2.78142C1.48499 0 0.431641 1.06808 0.431641 2.37924V30.6208C0.431641 31.9319 1.48499 33 2.78142 33H31.0745C32.3709 33 33.4316 31.9319 33.4316 30.6208V2.37924C33.4316 1.06808 32.3709 0 31.0745 0ZM10.4053 28.2857H5.51423V12.5371H10.4127V28.2857H10.4053ZM7.95977 10.3862C6.39079 10.3862 5.12383 9.11183 5.12383 7.55022C5.12383 5.98862 6.39079 4.71429 7.95977 4.71429C9.52137 4.71429 10.7957 5.98862 10.7957 7.55022C10.7957 9.1192 9.52874 10.3862 7.95977 10.3862ZM28.7395 28.2857H23.8484V20.625C23.8484 18.7982 23.8116 16.4484 21.3071 16.4484C18.7584 16.4484 18.368 18.4373 18.368 20.4924V28.2857H13.477V12.5371H18.1691V14.6879H18.2354C18.891 13.4504 20.4895 12.1467 22.8687 12.1467C27.8187 12.1467 28.7395 15.4098 28.7395 19.6527V28.2857Z" fill="#0E76A8"/>
</svg>
