<svg width="34" height="33" viewBox="0 0 34 33" fill="none" xmlns="http://www.w3.org/2000/svg">
<path d="M29.8959 0H3.96736C2.01535 0 0.431641 1.58371 0.431641 3.53571V29.4643C0.431641 31.4163 2.01535 33 3.96736 33H29.8959C31.8479 33 33.4316 31.4163 33.4316 29.4643V3.53571C33.4316 1.58371 31.8479 0 29.8959 0ZM26.2939 11.6973C26.3087 11.9036 26.3086 12.1172 26.3086 12.3234C26.3086 18.7098 21.447 26.0685 12.5636 26.0685C9.82338 26.0685 7.28209 25.273 5.14593 23.9029C5.53633 23.9471 5.912 23.9618 6.30977 23.9618C8.57115 23.9618 10.6484 23.1958 12.3057 21.8993C10.1843 21.8551 8.40173 20.4629 7.79035 18.5478C8.53432 18.6583 9.20463 18.6583 9.9707 18.4594C7.76088 18.01 6.10352 16.0654 6.10352 13.7156V13.6567C6.74436 14.0176 7.4957 14.2386 8.28387 14.2681C7.62124 13.8273 7.07803 13.2294 6.70272 12.5276C6.32741 11.8258 6.13168 11.042 6.13298 10.2462C6.13298 9.34755 6.36869 8.52254 6.78856 7.80804C9.1678 10.7397 12.7403 12.6549 16.7475 12.8612C16.0624 9.58326 18.5153 6.92411 21.4618 6.92411C22.854 6.92411 24.1062 7.50603 24.9901 8.44888C26.0803 8.24263 27.1263 7.8375 28.0544 7.28504C27.6935 8.40469 26.9348 9.34754 25.933 9.9442C26.9053 9.84107 27.8482 9.56853 28.7174 9.19286C28.0618 10.1578 27.2368 11.0123 26.2939 11.6973Z" fill="#1DA1F2"/>
</svg>
