<svg width="34" height="33" viewBox="0 0 34 33" fill="none" xmlns="http://www.w3.org/2000/svg">
<path d="M14.1915 12.5297L21.204 16.5147L14.1915 20.4998V12.5297ZM33.4316 3.53571V29.4643C33.4316 31.4163 31.8479 33 29.8959 33H3.96736C2.01535 33 0.431641 31.4163 0.431641 29.4643V3.53571C0.431641 1.58371 2.01535 0 3.96736 0H29.8959C31.8479 0 33.4316 1.58371 33.4316 3.53571ZM30.3379 16.5221C30.3379 16.5221 30.3379 12.1319 29.7781 10.0252C29.4687 8.86138 28.5627 7.94799 27.4062 7.63862C25.3216 7.07143 16.9316 7.07143 16.9316 7.07143C16.9316 7.07143 8.54169 7.07143 6.45709 7.63862C5.30061 7.94799 4.39459 8.86138 4.08521 10.0252C3.52539 12.1246 3.52539 16.5221 3.52539 16.5221C3.52539 16.5221 3.52539 20.9123 4.08521 23.019C4.39459 24.1828 5.30061 25.0594 6.45709 25.3687C8.54169 25.9286 16.9316 25.9286 16.9316 25.9286C16.9316 25.9286 25.3216 25.9286 27.4062 25.3614C28.5627 25.052 29.4687 24.1754 29.7781 23.0116C30.3379 20.9123 30.3379 16.5221 30.3379 16.5221Z" fill="#FF0000"/>
</svg>
